<svg width="960" height="640" viewBox="0 0 960 640" fill="none" xmlns="http://www.w3.org/2000/svg">
  <rect width="960" height="640" rx="36" fill="#EEF4FF"/>
  <ellipse cx="186" cy="120" rx="140" ry="72" fill="#DCE9FF"/>
  <ellipse cx="802" cy="154" rx="120" ry="66" fill="#D6F0FF"/>
  <rect x="96" y="430" width="768" height="14" rx="7" fill="#C9D7EE"/>
  <g opacity="0.9">
    <rect x="196" y="267" width="568" height="126" rx="50" fill="#1D4ED8"/>
    <path d="M298 268C338 206 400 176 480 176C560 176 622 206 662 268H298Z" fill="#2563EB"/>
    <rect x="350" y="214" width="130" height="58" rx="18" fill="#C7DAFF"/>
    <rect x="486" y="214" width="130" height="58" rx="18" fill="#D4F0FF"/>
    <rect x="222" y="304" width="56" height="22" rx="11" fill="#93C5FD"/>
    <rect x="684" y="304" width="56" height="22" rx="11" fill="#93C5FD"/>
    <circle cx="328" cy="396" r="54" fill="#0F172A"/>
    <circle cx="328" cy="396" r="27" fill="#CBD5E1"/>
    <circle cx="634" cy="396" r="54" fill="#0F172A"/>
    <circle cx="634" cy="396" r="27" fill="#CBD5E1"/>
  </g>
  <g opacity="0.65">
    <rect x="110" y="460" width="22" height="86" rx="11" fill="#9FB3D9"/>
    <rect x="830" y="460" width="22" height="86" rx="11" fill="#9FB3D9"/>
  </g>
</svg>
